# MagicaVoxel @ Ephtracy

# group
o 

# material
mtllib plant1.mtl
usemtl palette

# normals
vn -1 0 0
vn 1 0 0
vn 0 0 1
vn 0 0 -1
vn 0 -1 0
vn 0 1 0

# texcoords
vt 0.970703 0.5
vt 0.978516 0.5
vt 0.982422 0.5
vt 0.986328 0.5

# verts
v -0.3 0 0.2
v -0.3 0 -0.2
v -0.3 0.5 0.2
v -0.3 0.5 -0.2
v -0.3 1.1 0
v -0.3 1.1 -0.1
v -0.3 1.1 -0.2
v -0.3 1.2 0
v -0.3 1.2 -0.1
v -0.3 1.2 -0.2
v -0.2 0 0.3
v -0.2 0 0.2
v -0.2 0 -0.2
v -0.2 0 -0.3
v -0.2 0.5 0.3
v -0.2 0.5 0.2
v -0.2 0.5 -0.2
v -0.2 0.5 -0.3
v -0.2 1.1 0.1
v -0.2 1.1 0
v -0.2 1.2 0.1
v -0.2 1.2 0
v -0.1 0.4 0.1
v -0.1 0.4 0
v -0.1 0.5 0.1
v -0.1 0.5 0
v -0.1 0.6 0.2
v -0.1 0.6 0.1
v -0.1 0.7 0.2
v -0.1 0.7 0.1
v -0.1 0.7 0
v -0.1 0.8 0
v -0.1 0.8 -0.1
v -0.1 0.9 0
v -0.1 0.9 -0.1
v -0.1 1 0.1
v -0.1 1 0
v -0.1 1.1 0.1
v -0.1 1.1 0
v -0.1 1.2 0.1
v -0.1 1.2 0
v -0.1 1.3 0.1
v -0.1 1.3 0
v -0.1 1.4 0.1
v -0.1 1.4 0
v 0 0.6 0.3
v 0 0.6 0.2
v 0 0.7 0.3
v 0 0.7 0.2
v 0 0.8 -0.1
v 0 0.8 -0.2
v 0 0.9 -0.1
v 0 0.9 -0.2
v 0.2 0.4 0.2
v 0.2 0.4 -0.2
v 0.2 0.5 0.2
v 0.2 0.5 -0.2
v -0.2 0.4 0.2
v -0.2 0.4 -0.2
v -0.2 0.5 0.2
v -0.2 0.5 -0.2
v -0.1 1.1 -0.1
v -0.1 1.1 -0.2
v -0.1 1.2 -0.1
v -0.1 1.2 -0.2
v 0 0.4 0.1
v 0 0.4 0
v 0 0.5 0.1
v 0 0.5 0
v 0 0.6 0.1
v 0 0.6 0
v 0 0.7 0.1
v 0 0.7 0
v 0 0.8 0.1
v 0 0.8 0
v 0 0.9 0.1
v 0 0.9 0
v 0 1 0.1
v 0 1 0
v 0 1.1 0
v 0 1.1 -0.1
v 0 1.2 0
v 0 1.2 -0.1
v 0 1.3 0.1
v 0 1.3 0
v 0 1.4 0.1
v 0 1.4 0
v 0.1 0.6 0.1
v 0.1 0.6 0
v 0.1 0.7 0.1
v 0.1 0.7 0
v 0.1 0.8 0.1
v 0.1 0.8 0
v 0.1 0.9 0.1
v 0.1 0.9 0
v 0.2 0 0.3
v 0.2 0 0.2
v 0.2 0 -0.2
v 0.2 0 -0.3
v 0.2 0.5 0.3
v 0.2 0.5 0.2
v 0.2 0.5 -0.2
v 0.2 0.5 -0.3
v 0.2 0.6 0.3
v 0.2 0.6 0.2
v 0.2 0.6 0.1
v 0.2 0.7 0.3
v 0.2 0.7 0.2
v 0.2 0.7 0.1
v 0.2 0.8 0
v 0.2 0.8 -0.1
v 0.2 0.8 -0.2
v 0.2 0.9 0
v 0.2 0.9 -0.1
v 0.2 0.9 -0.2
v 0.3 0 0.2
v 0.3 0 -0.2
v 0.3 0.5 0.2
v 0.3 0.5 -0.2
v -0.2 0 0.3
v -0.2 0.5 0.3
v 0 0.6 0.3
v 0 0.7 0.3
v 0.2 0 0.3
v 0.2 0.5 0.3
v 0.2 0.6 0.3
v 0.2 0.7 0.3
v -0.3 0 0.2
v -0.3 0.5 0.2
v -0.2 0 0.2
v -0.2 0.5 0.2
v -0.1 0.6 0.2
v -0.1 0.7 0.2
v 0 0.6 0.2
v 0 0.7 0.2
v 0.2 0 0.2
v 0.2 0.5 0.2
v 0.3 0 0.2
v 0.3 0.5 0.2
v -0.2 1.1 0.1
v -0.2 1.2 0.1
v -0.1 0.4 0.1
v -0.1 0.5 0.1
v -0.1 0.6 0.1
v -0.1 0.7 0.1
v -0.1 1 0.1
v -0.1 1.1 0.1
v -0.1 1.2 0.1
v -0.1 1.3 0.1
v -0.1 1.4 0.1
v 0 0.4 0.1
v 0 0.5 0.1
v 0 0.6 0.1
v 0 0.7 0.1
v 0 0.8 0.1
v 0 0.9 0.1
v 0 1 0.1
v 0 1.3 0.1
v 0 1.4 0.1
v 0.1 0.8 0.1
v 0.1 0.9 0.1
v -0.3 1.1 0
v -0.3 1.2 0
v -0.2 1.1 0
v -0.2 1.2 0
v 0.1 0.8 0
v 0.1 0.9 0
v 0.2 0.8 0
v 0.2 0.9 0
v -0.2 0.4 -0.2
v -0.2 0.5 -0.2
v 0.2 0.4 -0.2
v 0.2 0.5 -0.2
v -0.2 0.4 0.2
v -0.2 0.5 0.2
v 0.2 0.4 0.2
v 0.2 0.5 0.2
v 0.1 0.6 0.1
v 0.1 0.7 0.1
v 0.2 0.6 0.1
v 0.2 0.7 0.1
v -0.1 0.4 0
v -0.1 0.5 0
v -0.1 0.7 0
v -0.1 0.8 0
v -0.1 0.9 0
v -0.1 1 0
v -0.1 1.1 0
v -0.1 1.2 0
v -0.1 1.3 0
v -0.1 1.4 0
v 0 0.4 0
v 0 0.5 0
v 0 0.6 0
v 0 0.7 0
v 0 0.8 0
v 0 0.9 0
v 0 1 0
v 0 1.1 0
v 0 1.2 0
v 0 1.3 0
v 0 1.4 0
v 0.1 0.6 0
v 0.1 0.7 0
v -0.1 0.8 -0.1
v -0.1 0.9 -0.1
v -0.1 1.1 -0.1
v -0.1 1.2 -0.1
v 0 0.8 -0.1
v 0 0.9 -0.1
v 0 1.1 -0.1
v 0 1.2 -0.1
v -0.3 0 -0.2
v -0.3 0.5 -0.2
v -0.3 1.1 -0.2
v -0.3 1.2 -0.2
v -0.2 0 -0.2
v -0.2 0.5 -0.2
v -0.2 1.1 -0.2
v -0.2 1.2 -0.2
v -0.1 1.1 -0.2
v -0.1 1.2 -0.2
v 0 0.8 -0.2
v 0 0.9 -0.2
v 0.2 0 -0.2
v 0.2 0.5 -0.2
v 0.2 0.8 -0.2
v 0.2 0.9 -0.2
v 0.3 0 -0.2
v 0.3 0.5 -0.2
v -0.2 0 -0.3
v -0.2 0.5 -0.3
v 0.2 0 -0.3
v 0.2 0.5 -0.3
v -0.2 0 0.3
v 0.2 0 0.3
v -0.3 0 0.2
v -0.2 0 0.2
v 0.2 0 0.2
v 0.3 0 0.2
v -0.3 0 -0.2
v -0.2 0 -0.2
v 0.2 0 -0.2
v 0.3 0 -0.2
v -0.2 0 -0.3
v 0.2 0 -0.3
v 0 0.6 0.3
v 0.2 0.6 0.3
v -0.1 0.6 0.2
v 0 0.6 0.2
v 0.1 0.6 0.2
v 0.2 0.6 0.2
v -0.1 0.6 0.1
v 0 0.6 0.1
v 0.1 0.6 0.1
v 0.2 0.6 0.1
v 0 0.6 0
v 0.1 0.6 0
v 0 0.8 0.1
v 0.1 0.8 0.1
v -0.1 0.8 0
v 0 0.8 0
v 0.1 0.8 0
v 0.2 0.8 0
v -0.1 0.8 -0.1
v 0 0.8 -0.1
v 0.1 0.8 -0.1
v 0.2 0.8 -0.1
v 0 0.8 -0.2
v 0.2 0.8 -0.2
v -0.2 1.1 0.1
v -0.1 1.1 0.1
v -0.3 1.1 0
v -0.2 1.1 0
v -0.1 1.1 0
v 0 1.1 0
v -0.3 1.1 -0.1
v -0.2 1.1 -0.1
v -0.1 1.1 -0.1
v 0 1.1 -0.1
v -0.3 1.1 -0.2
v -0.2 1.1 -0.2
v -0.1 1.1 -0.2
v -0.2 0.4 0.2
v 0.2 0.4 0.2
v -0.1 0.4 0.1
v 0 0.4 0.1
v -0.1 0.4 0
v 0 0.4 0
v -0.2 0.4 -0.2
v 0.2 0.4 -0.2
v -0.2 0.5 0.3
v 0.2 0.5 0.3
v -0.3 0.5 0.2
v -0.2 0.5 0.2
v 0.2 0.5 0.2
v 0.3 0.5 0.2
v -0.3 0.5 -0.2
v -0.2 0.5 -0.2
v 0.2 0.5 -0.2
v 0.3 0.5 -0.2
v -0.2 0.5 -0.3
v 0.2 0.5 -0.3
v 0 0.7 0.3
v 0.2 0.7 0.3
v -0.1 0.7 0.2
v 0 0.7 0.2
v 0.1 0.7 0.2
v 0.2 0.7 0.2
v -0.1 0.7 0.1
v 0 0.7 0.1
v 0.1 0.7 0.1
v 0.2 0.7 0.1
v 0 0.7 0
v 0.1 0.7 0
v 0 0.9 0.1
v 0.1 0.9 0.1
v -0.1 0.9 0
v 0 0.9 0
v 0.1 0.9 0
v 0.2 0.9 0
v -0.1 0.9 -0.1
v 0 0.9 -0.1
v 0.1 0.9 -0.1
v 0.2 0.9 -0.1
v 0 0.9 -0.2
v 0.2 0.9 -0.2
v -0.2 1.2 0.1
v -0.1 1.2 0.1
v -0.3 1.2 0
v -0.2 1.2 0
v -0.1 1.2 0
v 0 1.2 0
v -0.3 1.2 -0.1
v -0.2 1.2 -0.1
v -0.1 1.2 -0.1
v 0 1.2 -0.1
v -0.3 1.2 -0.2
v -0.2 1.2 -0.2
v -0.1 1.2 -0.2
v -0.1 1.4 0.1
v 0 1.4 0.1
v -0.1 1.4 0
v 0 1.4 0

# faces
f 3/1/1 2/1/1 1/1/1
f 4/1/1 2/1/1 3/1/1
f 8/3/1 6/3/1 5/3/1
f 9/4/1 7/4/1 6/4/1
f 9/3/1 6/3/1 8/3/1
f 10/4/1 7/4/1 9/4/1
f 15/1/1 12/1/1 11/1/1
f 16/1/1 12/1/1 15/1/1
f 17/1/1 14/1/1 13/1/1
f 18/1/1 14/1/1 17/1/1
f 21/3/1 20/3/1 19/3/1
f 22/3/1 20/3/1 21/3/1
f 25/3/1 24/3/1 23/3/1
f 26/3/1 24/3/1 25/3/1
f 28/4/1 26/4/1 25/4/1
f 29/3/1 28/3/1 27/3/1
f 30/4/1 26/4/1 28/4/1
f 30/3/1 28/3/1 29/3/1
f 31/4/1 26/4/1 30/4/1
f 32/3/1 31/3/1 30/3/1
f 34/3/1 32/3/1 30/3/1
f 34/3/1 33/3/1 32/3/1
f 35/3/1 33/3/1 34/3/1
f 36/3/1 34/3/1 30/3/1
f 37/3/1 34/3/1 36/3/1
f 38/4/1 37/4/1 36/4/1
f 39/4/1 37/4/1 38/4/1
f 42/4/1 41/4/1 40/4/1
f 43/4/1 41/4/1 42/4/1
f 44/3/1 43/3/1 42/3/1
f 45/3/1 43/3/1 44/3/1
f 48/3/1 47/3/1 46/3/1
f 49/3/1 47/3/1 48/3/1
f 52/4/1 51/4/1 50/4/1
f 53/4/1 51/4/1 52/4/1
f 56/1/1 55/1/1 54/1/1
f 57/1/1 55/1/1 56/1/1
f 58/1/2 59/1/2 60/1/2
f 60/1/2 59/1/2 61/1/2
f 62/3/2 63/3/2 64/3/2
f 64/3/2 63/3/2 65/3/2
f 66/3/2 67/3/2 68/3/2
f 68/3/2 67/3/2 69/3/2
f 68/4/2 69/4/2 70/4/2
f 70/4/2 69/4/2 71/4/2
f 72/3/2 73/3/2 74/3/2
f 74/3/2 73/3/2 75/3/2
f 76/3/2 77/3/2 78/3/2
f 78/3/2 77/3/2 79/3/2
f 78/4/2 79/4/2 80/4/2
f 78/4/2 80/4/2 82/4/2
f 80/4/2 81/4/2 82/4/2
f 82/4/2 81/4/2 83/4/2
f 78/4/2 82/4/2 84/4/2
f 84/4/2 82/4/2 85/4/2
f 84/3/2 85/3/2 86/3/2
f 86/3/2 85/3/2 87/3/2
f 88/3/2 89/3/2 90/3/2
f 90/3/2 89/3/2 91/3/2
f 92/3/2 93/3/2 94/3/2
f 94/3/2 93/3/2 95/3/2
f 96/1/2 97/1/2 100/1/2
f 100/1/2 97/1/2 101/1/2
f 98/1/2 99/1/2 102/1/2
f 102/1/2 99/1/2 103/1/2
f 104/3/2 105/3/2 107/3/2
f 105/4/2 106/4/2 108/4/2
f 107/3/2 105/3/2 108/3/2
f 108/4/2 106/4/2 109/4/2
f 110/3/2 111/3/2 113/3/2
f 111/4/2 112/4/2 114/4/2
f 113/3/2 111/3/2 114/3/2
f 114/4/2 112/4/2 115/4/2
f 116/1/2 117/1/2 118/1/2
f 118/1/2 117/1/2 119/1/2
f 124/1/3 121/1/3 120/1/3
f 125/1/3 121/1/3 124/1/3
f 126/3/3 123/3/3 122/3/3
f 127/3/3 123/3/3 126/3/3
f 130/1/3 129/1/3 128/1/3
f 131/1/3 129/1/3 130/1/3
f 134/3/3 133/3/3 132/3/3
f 135/3/3 133/3/3 134/3/3
f 138/1/3 137/1/3 136/1/3
f 139/1/3 137/1/3 138/1/3
f 147/3/3 141/3/3 140/3/3
f 148/3/3 141/3/3 147/3/3
f 151/3/3 143/3/3 142/3/3
f 152/4/3 144/4/3 143/4/3
f 152/3/3 143/3/3 151/3/3
f 153/4/3 144/4/3 152/4/3
f 154/3/3 146/3/3 145/3/3
f 155/3/3 146/3/3 154/3/3
f 156/3/3 146/3/3 155/3/3
f 157/4/3 147/4/3 146/4/3
f 157/3/3 146/3/3 156/3/3
f 157/4/3 148/4/3 147/4/3
f 157/4/3 149/4/3 148/4/3
f 158/3/3 150/3/3 149/3/3
f 158/4/3 149/4/3 157/4/3
f 159/3/3 150/3/3 158/3/3
f 160/3/3 156/3/3 155/3/3
f 161/3/3 156/3/3 160/3/3
f 164/3/3 163/3/3 162/3/3
f 165/3/3 163/3/3 164/3/3
f 168/3/3 167/3/3 166/3/3
f 169/3/3 167/3/3 168/3/3
f 172/1/3 171/1/3 170/1/3
f 173/1/3 171/1/3 172/1/3
f 174/1/4 175/1/4 176/1/4
f 176/1/4 175/1/4 177/1/4
f 178/4/4 179/4/4 180/4/4
f 180/4/4 179/4/4 181/4/4
f 182/3/4 183/3/4 192/3/4
f 183/4/4 184/4/4 193/4/4
f 192/3/4 183/3/4 193/3/4
f 193/4/4 184/4/4 194/4/4
f 184/3/4 185/3/4 195/3/4
f 194/4/4 184/4/4 195/4/4
f 195/3/4 185/3/4 196/3/4
f 186/3/4 187/3/4 197/3/4
f 187/4/4 188/4/4 198/4/4
f 197/3/4 187/3/4 198/3/4
f 198/4/4 188/4/4 199/4/4
f 189/4/4 190/4/4 200/4/4
f 190/3/4 191/3/4 201/3/4
f 200/4/4 190/4/4 201/4/4
f 201/3/4 191/3/4 202/3/4
f 194/3/4 195/3/4 203/3/4
f 203/3/4 195/3/4 204/3/4
f 205/3/4 206/3/4 209/3/4
f 209/3/4 206/3/4 210/3/4
f 207/4/4 208/4/4 211/4/4
f 211/4/4 208/4/4 212/4/4
f 213/1/4 214/1/4 217/1/4
f 217/1/4 214/1/4 218/1/4
f 215/4/4 216/4/4 219/4/4
f 219/4/4 216/4/4 220/4/4
f 219/3/4 220/3/4 221/3/4
f 221/3/4 220/3/4 222/3/4
f 223/4/4 224/4/4 227/4/4
f 227/4/4 224/4/4 228/4/4
f 225/1/4 226/1/4 229/1/4
f 229/1/4 226/1/4 230/1/4
f 231/1/4 232/1/4 233/1/4
f 233/1/4 232/1/4 234/1/4
f 238/1/5 236/1/5 235/1/5
f 239/1/5 236/1/5 238/1/5
f 241/1/5 238/1/5 237/1/5
f 241/1/5 240/1/5 239/1/5
f 241/1/5 239/1/5 238/1/5
f 242/1/5 240/1/5 241/1/5
f 243/1/5 240/1/5 242/1/5
f 244/1/5 240/1/5 243/1/5
f 245/1/5 243/1/5 242/1/5
f 246/1/5 243/1/5 245/1/5
f 250/3/5 248/3/5 247/3/5
f 251/3/5 248/3/5 250/3/5
f 252/3/5 248/3/5 251/3/5
f 253/3/5 250/3/5 249/3/5
f 253/3/5 251/3/5 250/3/5
f 254/3/5 251/3/5 253/3/5
f 255/4/5 252/4/5 251/4/5
f 255/3/5 251/3/5 254/3/5
f 256/4/5 252/4/5 255/4/5
f 257/3/5 255/3/5 254/3/5
f 258/3/5 255/3/5 257/3/5
f 262/3/5 260/3/5 259/3/5
f 263/3/5 260/3/5 262/3/5
f 265/3/5 262/3/5 261/3/5
f 266/4/5 263/4/5 262/4/5
f 266/3/5 262/3/5 265/3/5
f 267/3/5 264/3/5 263/3/5
f 267/4/5 263/4/5 266/4/5
f 268/3/5 264/3/5 267/3/5
f 269/4/5 267/4/5 266/4/5
f 269/4/5 268/4/5 267/4/5
f 270/4/5 268/4/5 269/4/5
f 274/3/5 272/3/5 271/3/5
f 275/3/5 272/3/5 274/3/5
f 277/3/5 274/3/5 273/3/5
f 277/3/5 275/3/5 274/3/5
f 278/3/5 275/3/5 277/3/5
f 279/4/5 276/4/5 275/4/5
f 279/3/5 275/3/5 278/3/5
f 280/4/5 276/4/5 279/4/5
f 281/4/5 278/4/5 277/4/5
f 282/3/5 279/3/5 278/3/5
f 282/4/5 278/4/5 281/4/5
f 283/3/5 279/3/5 282/3/5
f 284/2/6 285/2/6 286/2/6
f 286/2/6 285/2/6 287/2/6
f 284/2/6 286/2/6 288/2/6
f 287/2/6 285/2/6 289/2/6
f 284/2/6 288/2/6 290/2/6
f 288/2/6 289/2/6 290/2/6
f 289/2/6 285/2/6 291/2/6
f 290/2/6 289/2/6 291/2/6
f 292/1/6 293/1/6 295/1/6
f 295/1/6 293/1/6 296/1/6
f 294/1/6 295/1/6 298/1/6
f 298/1/6 295/1/6 299/1/6
f 296/1/6 297/1/6 300/1/6
f 300/1/6 297/1/6 301/1/6
f 299/1/6 300/1/6 302/1/6
f 302/1/6 300/1/6 303/1/6
f 304/3/6 305/3/6 307/3/6
f 307/3/6 305/3/6 308/3/6
f 308/3/6 305/3/6 309/3/6
f 306/3/6 307/3/6 310/3/6
f 307/3/6 308/3/6 310/3/6
f 310/3/6 308/3/6 311/3/6
f 308/4/6 309/4/6 312/4/6
f 311/3/6 308/3/6 312/3/6
f 312/4/6 309/4/6 313/4/6
f 311/3/6 312/3/6 314/3/6
f 314/3/6 312/3/6 315/3/6
f 316/3/6 317/3/6 319/3/6
f 319/3/6 317/3/6 320/3/6
f 318/3/6 319/3/6 322/3/6
f 319/4/6 320/4/6 323/4/6
f 322/3/6 319/3/6 323/3/6
f 320/3/6 321/3/6 324/3/6
f 323/4/6 320/4/6 324/4/6
f 324/3/6 321/3/6 325/3/6
f 323/4/6 324/4/6 326/4/6
f 324/4/6 325/4/6 326/4/6
f 326/4/6 325/4/6 327/4/6
f 328/3/6 329/3/6 331/3/6
f 331/3/6 329/3/6 332/3/6
f 330/3/6 331/3/6 334/3/6
f 331/3/6 332/3/6 334/3/6
f 334/3/6 332/3/6 335/3/6
f 332/4/6 333/4/6 336/4/6
f 335/3/6 332/3/6 336/3/6
f 336/4/6 333/4/6 337/4/6
f 334/4/6 335/4/6 338/4/6
f 335/3/6 336/3/6 339/3/6
f 338/4/6 335/4/6 339/4/6
f 339/3/6 336/3/6 340/3/6
f 341/3/6 342/3/6 343/3/6
f 343/3/6 342/3/6 344/3/6
