# MagicaVoxel @ Ephtracy

# group
o 

# material
mtllib chair.mtl
usemtl palette

# normals
vn -1 0 0
vn 1 0 0
vn 0 0 1
vn 0 0 -1
vn 0 -1 0
vn 0 1 0

# texcoords
vt 0.939453 0.5
vt 0.978516 0.5
vt 0.990234 0.5
vt 0.994141 0.5

# verts
v -0.7 0 0.3
v -0.7 0 0.2
v -0.7 0 -0.3
v -0.7 0 -0.4
v -0.7 0.1 0.3
v -0.7 0.1 0.2
v -0.7 0.2 0.2
v -0.7 0.2 0
v -0.7 0.2 -0.3
v -0.7 0.3 0.3
v -0.7 0.3 0
v -0.7 0.4 0.2
v -0.7 0.4 -0.3
v -0.7 0.5 0.3
v -0.7 0.5 0.2
v -0.7 0.5 0
v -0.7 0.5 -0.2
v -0.7 0.5 -0.3
v -0.7 0.6 0.2
v -0.7 0.6 0
v -0.7 0.6 -0.2
v -0.7 0.6 -0.4
v -0.6 0.2 0.4
v -0.6 0.2 0.3
v -0.6 0.3 0.4
v -0.6 0.3 0.3
v -0.6 0.4 -0.2
v -0.6 0.4 -0.3
v -0.6 0.5 -0.2
v -0.6 0.5 -0.3
v -0.6 0.6 -0.2
v -0.6 0.6 -0.3
v -0.6 0.6 -0.4
v -0.6 0.8 -0.2
v -0.6 0.8 -0.3
v -0.6 0.8 -0.4
v -0.6 0.9 -0.3
v -0.6 0.9 -0.4
v 0 0 0.3
v 0 0 0.2
v 0 0 -0.3
v 0 0 -0.4
v 0 0.2 0.3
v 0 0.2 0.2
v 0 0.2 -0.3
v 0 0.2 -0.4
v 0 0.4 0.3
v 0 0.4 0.2
v 0 0.5 0.3
v 0 0.5 0.2
v 0 0.5 0.1
v 0 0.5 -0.2
v 0 0.6 0.2
v 0 0.6 0.1
v 0 0.6 -0.2
v -0.6 0 0.3
v -0.6 0 0.2
v -0.6 0 -0.3
v -0.6 0 -0.4
v -0.6 0.1 0.3
v -0.6 0.1 0.2
v -0.6 0.2 0.3
v -0.6 0.2 0.2
v -0.6 0.2 -0.3
v -0.6 0.2 -0.4
v -0.6 0.4 0.3
v -0.6 0.4 0.2
v -0.6 0.5 0.3
v -0.6 0.5 0.2
v -0.6 0.5 0
v -0.6 0.5 -0.2
v -0.6 0.6 0.2
v -0.6 0.6 0
v -0.6 0.6 -0.2
v 0 0.2 0.4
v 0 0.2 0.3
v 0 0.3 0.4
v 0 0.3 0.3
v 0 0.4 -0.2
v 0 0.4 -0.3
v 0 0.5 -0.2
v 0 0.5 -0.3
v 0 0.6 -0.2
v 0 0.6 -0.3
v 0 0.6 -0.4
v 0 0.8 -0.2
v 0 0.8 -0.3
v 0 0.8 -0.4
v 0 0.9 -0.3
v 0 0.9 -0.4
v 0.1 0 0.3
v 0.1 0 0.2
v 0.1 0 -0.3
v 0.1 0 -0.4
v 0.1 0.2 0.2
v 0.1 0.2 0.1
v 0.1 0.2 -0.2
v 0.1 0.2 -0.3
v 0.1 0.3 0.2
v 0.1 0.3 0.1
v 0.1 0.3 0
v 0.1 0.3 -0.2
v 0.1 0.4 0.2
v 0.1 0.4 0
v 0.1 0.4 -0.3
v 0.1 0.5 0.3
v 0.1 0.5 0.2
v 0.1 0.5 0.1
v 0.1 0.5 -0.2
v 0.1 0.5 -0.3
v 0.1 0.6 0.2
v 0.1 0.6 0.1
v 0.1 0.6 -0.2
v 0.1 0.6 -0.4
v -0.6 0.2 0.4
v -0.6 0.3 0.4
v 0 0.2 0.4
v 0 0.3 0.4
v -0.7 0 0.3
v -0.7 0.1 0.3
v -0.7 0.3 0.3
v -0.7 0.5 0.3
v -0.6 0 0.3
v -0.6 0.1 0.3
v -0.6 0.2 0.3
v -0.6 0.3 0.3
v -0.6 0.4 0.3
v -0.6 0.5 0.3
v 0 0 0.3
v 0 0.2 0.3
v 0 0.3 0.3
v 0 0.4 0.3
v 0 0.5 0.3
v 0.1 0 0.3
v 0.1 0.5 0.3
v -0.7 0.5 0.2
v -0.7 0.6 0.2
v -0.6 0.5 0.2
v -0.6 0.6 0.2
v 0 0.5 0.2
v 0 0.6 0.2
v 0.1 0.5 0.2
v 0.1 0.6 0.2
v -0.6 0.4 -0.2
v -0.6 0.5 -0.2
v -0.6 0.6 -0.2
v -0.6 0.8 -0.2
v -0.5 0.7 -0.2
v -0.5 0.8 -0.2
v -0.4 0.7 -0.2
v -0.4 0.8 -0.2
v -0.3 0.7 -0.2
v -0.3 0.8 -0.2
v -0.2 0.7 -0.2
v -0.2 0.8 -0.2
v 0 0.4 -0.2
v 0 0.5 -0.2
v 0 0.6 -0.2
v 0 0.8 -0.2
v -0.7 0 -0.3
v -0.7 0.2 -0.3
v -0.7 0.4 -0.3
v -0.7 0.5 -0.3
v -0.6 0 -0.3
v -0.6 0.2 -0.3
v -0.6 0.4 -0.3
v -0.6 0.5 -0.3
v -0.6 0.8 -0.3
v -0.6 0.9 -0.3
v -0.5 0.8 -0.3
v -0.5 0.9 -0.3
v -0.4 0.8 -0.3
v -0.4 0.9 -0.3
v -0.3 0.8 -0.3
v -0.2 0.8 -0.3
v 0 0 -0.3
v 0 0.2 -0.3
v 0 0.4 -0.3
v 0 0.5 -0.3
v 0 0.8 -0.3
v 0 0.9 -0.3
v 0.1 0 -0.3
v 0.1 0.2 -0.3
v 0.1 0.4 -0.3
v 0.1 0.5 -0.3
v -0.7 0 0.2
v -0.7 0.1 0.2
v -0.7 0.2 0.2
v -0.7 0.4 0.2
v -0.7 0.5 0.2
v -0.6 0 0.2
v -0.6 0.1 0.2
v -0.6 0.2 0.2
v -0.6 0.4 0.2
v -0.6 0.5 0.2
v 0 0 0.2
v 0 0.2 0.2
v 0 0.4 0.2
v 0 0.5 0.2
v 0.1 0 0.2
v 0.1 0.2 0.2
v 0.1 0.4 0.2
v 0.1 0.5 0.2
v -0.7 0 -0.4
v -0.7 0.6 -0.4
v -0.6 0 -0.4
v -0.6 0.2 -0.4
v -0.6 0.3 -0.4
v -0.6 0.4 -0.4
v -0.6 0.6 -0.4
v -0.6 0.8 -0.4
v -0.6 0.9 -0.4
v -0.5 0.6 -0.4
v -0.5 0.8 -0.4
v -0.5 0.9 -0.4
v -0.4 0.3 -0.4
v -0.4 0.4 -0.4
v -0.4 0.5 -0.4
v -0.4 0.6 -0.4
v -0.4 0.7 -0.4
v -0.4 0.8 -0.4
v -0.4 0.9 -0.4
v -0.3 0.6 -0.4
v -0.3 0.7 -0.4
v -0.1 0.4 -0.4
v -0.1 0.5 -0.4
v 0 0 -0.4
v 0 0.2 -0.4
v 0 0.6 -0.4
v 0 0.8 -0.4
v 0 0.9 -0.4
v 0.1 0 -0.4
v 0.1 0.6 -0.4
v -0.7 0 0.3
v -0.6 0 0.3
v 0 0 0.3
v 0.1 0 0.3
v -0.7 0 0.2
v -0.6 0 0.2
v 0 0 0.2
v 0.1 0 0.2
v -0.7 0 -0.3
v -0.6 0 -0.3
v 0 0 -0.3
v 0.1 0 -0.3
v -0.7 0 -0.4
v -0.6 0 -0.4
v 0 0 -0.4
v 0.1 0 -0.4
v -0.6 0.2 0.4
v 0 0.2 0.4
v -0.6 0.2 0.3
v 0 0.2 0.3
v -0.7 0.2 0.2
v -0.6 0.2 0.2
v 0 0.2 0.2
v 0.1 0.2 0.2
v 0 0.2 0.1
v 0.1 0.2 0.1
v -0.7 0.2 0
v -0.6 0.2 0
v 0 0.2 -0.2
v 0.1 0.2 -0.2
v -0.7 0.2 -0.3
v -0.6 0.2 -0.3
v 0 0.2 -0.3
v 0.1 0.2 -0.3
v -0.6 0.2 -0.4
v 0 0.2 -0.4
v -0.7 0.5 0.2
v -0.6 0.5 0.2
v 0 0.5 0.2
v 0.1 0.5 0.2
v 0 0.5 0.1
v 0.1 0.5 0.1
v -0.7 0.5 0
v -0.6 0.5 0
v -0.7 0.5 -0.2
v -0.6 0.5 -0.2
v 0 0.5 -0.2
v 0.1 0.5 -0.2
v -0.7 0.5 -0.3
v -0.6 0.5 -0.3
v 0 0.5 -0.3
v 0.1 0.5 -0.3
v -0.6 0.3 0.4
v 0 0.3 0.4
v -0.6 0.3 0.3
v 0 0.3 0.3
v -0.6 0.4 0.3
v 0 0.4 0.3
v -0.7 0.4 0.2
v -0.6 0.4 0.2
v 0 0.4 0.2
v 0.1 0.4 0.2
v -0.5 0.4 0.1
v -0.3 0.4 0.1
v -0.4 0.4 0
v -0.3 0.4 0
v 0 0.4 0
v 0.1 0.4 0
v -0.5 0.4 -0.1
v -0.4 0.4 -0.1
v -0.6 0.4 -0.2
v 0 0.4 -0.2
v -0.7 0.4 -0.3
v -0.6 0.4 -0.3
v 0 0.4 -0.3
v 0.1 0.4 -0.3
v -0.7 0.5 0.3
v -0.6 0.5 0.3
v 0 0.5 0.3
v 0.1 0.5 0.3
v -0.7 0.5 0.2
v -0.6 0.5 0.2
v 0 0.5 0.2
v 0.1 0.5 0.2
v -0.7 0.6 0.2
v -0.6 0.6 0.2
v 0 0.6 0.2
v 0.1 0.6 0.2
v 0 0.6 0.1
v 0.1 0.6 0.1
v -0.7 0.6 0
v -0.6 0.6 0
v -0.7 0.6 -0.2
v -0.6 0.6 -0.2
v 0 0.6 -0.2
v 0.1 0.6 -0.2
v -0.6 0.6 -0.3
v 0 0.6 -0.3
v -0.7 0.6 -0.4
v -0.6 0.6 -0.4
v 0 0.6 -0.4
v 0.1 0.6 -0.4
v -0.6 0.8 -0.2
v -0.5 0.8 -0.2
v -0.4 0.8 -0.2
v -0.3 0.8 -0.2
v -0.2 0.8 -0.2
v 0 0.8 -0.2
v -0.6 0.8 -0.3
v -0.5 0.8 -0.3
v -0.4 0.8 -0.3
v -0.3 0.8 -0.3
v -0.2 0.8 -0.3
v 0 0.8 -0.3
v -0.6 0.9 -0.3
v -0.5 0.9 -0.3
v -0.4 0.9 -0.3
v 0 0.9 -0.3
v -0.6 0.9 -0.4
v -0.5 0.9 -0.4
v -0.4 0.9 -0.4
v 0 0.9 -0.4

# faces
f 5/2/1 2/2/1 1/2/1
f 6/2/1 2/2/1 5/2/1
f 7/1/1 6/1/1 5/1/1
f 9/2/1 4/2/1 3/2/1
f 10/1/1 8/1/1 7/1/1
f 10/1/1 7/1/1 5/1/1
f 11/2/1 9/2/1 8/2/1
f 11/1/1 8/1/1 10/1/1
f 12/2/1 11/2/1 10/2/1
f 13/2/1 4/2/1 9/2/1
f 13/2/1 11/2/1 12/2/1
f 13/2/1 9/2/1 11/2/1
f 14/2/1 12/2/1 10/2/1
f 15/2/1 12/2/1 14/2/1
f 18/2/1 4/2/1 13/2/1
f 19/2/1 16/2/1 15/2/1
f 20/1/1 17/1/1 16/1/1
f 20/2/1 16/2/1 19/2/1
f 21/2/1 18/2/1 17/2/1
f 21/1/1 17/1/1 20/1/1
f 22/2/1 4/2/1 18/2/1
f 22/2/1 18/2/1 21/2/1
f 25/3/1 24/3/1 23/3/1
f 26/3/1 24/3/1 25/3/1
f 29/3/1 28/3/1 27/3/1
f 30/3/1 28/3/1 29/3/1
f 34/3/1 32/3/1 31/3/1
f 35/1/1 33/1/1 32/1/1
f 35/3/1 32/3/1 34/3/1
f 36/1/1 33/1/1 35/1/1
f 37/3/1 36/3/1 35/3/1
f 38/3/1 36/3/1 37/3/1
f 43/2/1 40/2/1 39/2/1
f 44/2/1 40/2/1 43/2/1
f 45/2/1 42/2/1 41/2/1
f 46/2/1 42/2/1 45/2/1
f 49/2/1 48/2/1 47/2/1
f 50/2/1 48/2/1 49/2/1
f 53/2/1 51/2/1 50/2/1
f 54/1/1 52/1/1 51/1/1
f 54/2/1 51/2/1 53/2/1
f 55/1/1 52/1/1 54/1/1
f 56/2/2 57/2/2 60/2/2
f 60/2/2 57/2/2 61/2/2
f 60/1/2 61/1/2 62/1/2
f 62/1/2 61/1/2 63/1/2
f 58/2/2 59/2/2 64/2/2
f 64/2/2 59/2/2 65/2/2
f 66/2/2 67/2/2 68/2/2
f 68/2/2 67/2/2 69/2/2
f 69/2/2 70/2/2 72/2/2
f 70/1/2 71/1/2 73/1/2
f 72/2/2 70/2/2 73/2/2
f 73/1/2 71/1/2 74/1/2
f 75/3/2 76/3/2 77/3/2
f 77/3/2 76/3/2 78/3/2
f 79/3/2 80/3/2 81/3/2
f 81/3/2 80/3/2 82/3/2
f 83/3/2 84/3/2 86/3/2
f 84/2/2 85/2/2 87/2/2
f 86/3/2 84/3/2 87/3/2
f 87/2/2 85/2/2 88/2/2
f 87/3/2 88/3/2 89/3/2
f 89/3/2 88/3/2 90/3/2
f 91/2/2 92/2/2 95/2/2
f 93/2/2 94/2/2 98/2/2
f 91/2/2 95/2/2 99/2/2
f 95/2/2 96/2/2 99/2/2
f 96/1/2 97/1/2 100/1/2
f 99/2/2 96/2/2 100/2/2
f 100/1/2 97/1/2 101/1/2
f 97/2/2 98/2/2 102/2/2
f 101/1/2 97/1/2 102/1/2
f 91/2/2 99/2/2 103/2/2
f 100/1/2 101/1/2 103/1/2
f 99/1/2 100/1/2 103/1/2
f 101/2/2 102/2/2 104/2/2
f 103/1/2 101/1/2 104/1/2
f 102/2/2 98/2/2 105/2/2
f 104/2/2 102/2/2 105/2/2
f 98/2/2 94/2/2 105/2/2
f 91/2/2 103/2/2 106/2/2
f 106/2/2 103/2/2 107/2/2
f 105/2/2 94/2/2 110/2/2
f 107/2/2 108/2/2 111/2/2
f 108/1/2 109/1/2 112/1/2
f 111/2/2 108/2/2 112/2/2
f 109/2/2 110/2/2 113/2/2
f 112/1/2 109/1/2 113/1/2
f 110/2/2 94/2/2 114/2/2
f 113/2/2 110/2/2 114/2/2
f 117/3/3 116/3/3 115/3/3
f 118/3/3 116/3/3 117/3/3
f 123/2/3 120/2/3 119/2/3
f 124/1/3 121/1/3 120/1/3
f 124/2/3 120/2/3 123/2/3
f 125/1/3 121/1/3 124/1/3
f 126/2/3 122/2/3 121/2/3
f 126/1/3 121/1/3 125/1/3
f 127/2/3 122/2/3 126/2/3
f 128/2/3 122/2/3 127/2/3
f 131/3/3 127/3/3 126/3/3
f 132/3/3 127/3/3 131/3/3
f 134/2/3 130/2/3 129/2/3
f 134/2/3 133/2/3 132/2/3
f 134/2/3 132/2/3 131/2/3
f 134/2/3 131/2/3 130/2/3
f 135/2/3 133/2/3 134/2/3
f 138/2/3 137/2/3 136/2/3
f 139/2/3 137/2/3 138/2/3
f 142/2/3 141/2/3 140/2/3
f 143/2/3 141/2/3 142/2/3
f 148/3/3 145/3/3 144/3/3
f 148/3/3 147/3/3 146/3/3
f 148/3/3 146/3/3 145/3/3
f 149/3/3 147/3/3 148/3/3
f 150/3/3 148/3/3 144/3/3
f 150/4/3 149/4/3 148/4/3
f 151/4/3 149/4/3 150/4/3
f 152/3/3 150/3/3 144/3/3
f 152/3/3 151/3/3 150/3/3
f 153/3/3 151/3/3 152/3/3
f 154/3/3 152/3/3 144/3/3
f 154/4/3 153/4/3 152/4/3
f 155/4/3 153/4/3 154/4/3
f 156/3/3 154/3/3 144/3/3
f 156/3/3 155/3/3 154/3/3
f 157/3/3 155/3/3 156/3/3
f 158/3/3 155/3/3 157/3/3
f 159/3/3 155/3/3 158/3/3
f 164/2/3 161/2/3 160/2/3
f 165/2/3 161/2/3 164/2/3
f 166/2/3 163/2/3 162/2/3
f 167/2/3 163/2/3 166/2/3
f 170/3/3 169/3/3 168/3/3
f 171/3/3 169/3/3 170/3/3
f 172/4/3 171/4/3 170/4/3
f 173/4/3 171/4/3 172/4/3
f 174/3/3 173/3/3 172/3/3
f 175/3/3 173/3/3 174/3/3
f 180/3/3 173/3/3 175/3/3
f 181/3/3 173/3/3 180/3/3
f 182/2/3 177/2/3 176/2/3
f 183/2/3 177/2/3 182/2/3
f 184/2/3 179/2/3 178/2/3
f 185/2/3 179/2/3 184/2/3
f 186/2/4 187/2/4 191/2/4
f 187/1/4 188/1/4 192/1/4
f 191/2/4 187/2/4 192/2/4
f 192/1/4 188/1/4 193/1/4
f 189/2/4 190/2/4 194/2/4
f 194/2/4 190/2/4 195/2/4
f 196/2/4 197/2/4 200/2/4
f 200/2/4 197/2/4 201/2/4
f 198/2/4 199/2/4 202/2/4
f 202/2/4 199/2/4 203/2/4
f 204/2/4 205/2/4 206/2/4
f 206/2/4 205/2/4 207/2/4
f 207/2/4 205/2/4 208/2/4
f 208/2/4 205/2/4 209/2/4
f 209/2/4 205/2/4 210/2/4
f 209/2/4 210/2/4 213/2/4
f 210/1/4 211/1/4 213/1/4
f 211/3/4 212/3/4 214/3/4
f 213/1/4 211/1/4 214/1/4
f 214/3/4 212/3/4 215/3/4
f 207/2/4 208/2/4 216/2/4
f 208/1/4 209/1/4 216/1/4
f 209/2/4 213/2/4 217/2/4
f 216/1/4 209/1/4 217/1/4
f 213/2/4 214/2/4 217/2/4
f 217/2/4 214/2/4 218/2/4
f 218/2/4 214/2/4 219/2/4
f 219/2/4 214/2/4 220/2/4
f 214/4/4 215/4/4 221/4/4
f 220/2/4 214/2/4 221/2/4
f 221/4/4 215/4/4 222/4/4
f 219/1/4 220/1/4 223/1/4
f 218/2/4 219/2/4 223/2/4
f 220/2/4 221/2/4 224/2/4
f 223/1/4 220/1/4 224/1/4
f 216/2/4 217/2/4 225/2/4
f 217/1/4 218/1/4 225/1/4
f 223/2/4 224/2/4 226/2/4
f 225/1/4 218/1/4 226/1/4
f 218/2/4 223/2/4 226/2/4
f 207/2/4 216/2/4 228/2/4
f 216/2/4 225/2/4 228/2/4
f 225/2/4 226/2/4 228/2/4
f 226/2/4 224/2/4 229/2/4
f 228/2/4 226/2/4 229/2/4
f 224/2/4 221/2/4 230/2/4
f 229/2/4 224/2/4 230/2/4
f 221/3/4 222/3/4 230/3/4
f 230/3/4 222/3/4 231/3/4
f 227/2/4 228/2/4 232/2/4
f 228/2/4 229/2/4 232/2/4
f 232/2/4 229/2/4 233/2/4
f 238/2/5 235/2/5 234/2/5
f 239/2/5 235/2/5 238/2/5
f 240/2/5 237/2/5 236/2/5
f 241/2/5 237/2/5 240/2/5
f 246/2/5 243/2/5 242/2/5
f 247/2/5 243/2/5 246/2/5
f 248/2/5 245/2/5 244/2/5
f 249/2/5 245/2/5 248/2/5
f 252/3/5 251/3/5 250/3/5
f 253/3/5 251/3/5 252/3/5
f 255/2/5 253/2/5 252/2/5
f 256/2/5 253/2/5 255/2/5
f 258/2/5 256/2/5 255/2/5
f 258/2/5 257/2/5 256/2/5
f 259/2/5 257/2/5 258/2/5
f 260/1/5 255/1/5 254/1/5
f 261/2/5 258/2/5 255/2/5
f 261/1/5 255/1/5 260/1/5
f 262/1/5 259/1/5 258/1/5
f 262/2/5 258/2/5 261/2/5
f 262/2/5 261/2/5 260/2/5
f 263/1/5 259/1/5 262/1/5
f 264/2/5 262/2/5 260/2/5
f 264/2/5 263/2/5 262/2/5
f 265/2/5 263/2/5 264/2/5
f 266/2/5 263/2/5 265/2/5
f 267/2/5 263/2/5 266/2/5
f 268/2/5 266/2/5 265/2/5
f 269/2/5 266/2/5 268/2/5
f 274/2/5 273/2/5 272/2/5
f 275/2/5 273/2/5 274/2/5
f 276/2/5 271/2/5 270/2/5
f 277/2/5 271/2/5 276/2/5
f 278/1/5 277/1/5 276/1/5
f 279/1/5 277/1/5 278/1/5
f 280/1/5 275/1/5 274/1/5
f 281/1/5 275/1/5 280/1/5
f 282/2/5 279/2/5 278/2/5
f 283/2/5 279/2/5 282/2/5
f 284/2/5 281/2/5 280/2/5
f 285/2/5 281/2/5 284/2/5
f 286/3/6 287/3/6 288/3/6
f 288/3/6 287/3/6 289/3/6
f 290/3/6 291/3/6 293/3/6
f 293/3/6 291/3/6 294/3/6
f 293/3/6 294/3/6 296/3/6
f 296/3/6 294/3/6 297/3/6
f 296/4/6 297/4/6 298/4/6
f 297/3/6 294/3/6 299/3/6
f 298/4/6 297/4/6 299/4/6
f 294/1/6 295/1/6 300/1/6
f 299/3/6 294/3/6 300/3/6
f 300/1/6 295/1/6 301/1/6
f 293/3/6 296/3/6 302/3/6
f 296/4/6 298/4/6 302/4/6
f 298/3/6 299/3/6 303/3/6
f 302/4/6 298/4/6 303/4/6
f 299/3/6 300/3/6 303/3/6
f 292/2/6 293/2/6 304/2/6
f 293/3/6 302/3/6 304/3/6
f 302/3/6 303/3/6 304/3/6
f 303/3/6 300/3/6 305/3/6
f 304/3/6 303/3/6 305/3/6
f 300/2/6 301/2/6 305/2/6
f 292/2/6 304/2/6 306/2/6
f 306/2/6 304/2/6 307/2/6
f 305/2/6 301/2/6 308/2/6
f 308/2/6 301/2/6 309/2/6
f 310/2/6 311/2/6 314/2/6
f 314/2/6 311/2/6 315/2/6
f 312/2/6 313/2/6 316/2/6
f 316/2/6 313/2/6 317/2/6
f 320/2/6 321/2/6 322/2/6
f 322/2/6 321/2/6 323/2/6
f 318/2/6 319/2/6 324/2/6
f 324/2/6 319/2/6 325/2/6
f 324/1/6 325/1/6 326/1/6
f 326/1/6 325/1/6 327/1/6
f 322/1/6 323/1/6 328/1/6
f 328/1/6 323/1/6 329/1/6
f 326/2/6 327/2/6 330/2/6
f 328/2/6 329/2/6 331/2/6
f 326/2/6 330/2/6 332/2/6
f 332/2/6 330/2/6 333/2/6
f 331/2/6 329/2/6 334/2/6
f 334/2/6 329/2/6 335/2/6
f 336/3/6 337/3/6 342/3/6
f 337/4/6 338/4/6 343/4/6
f 342/3/6 337/3/6 343/3/6
f 338/3/6 339/3/6 344/3/6
f 343/4/6 338/4/6 344/4/6
f 339/4/6 340/4/6 345/4/6
f 344/3/6 339/3/6 345/3/6
f 340/3/6 341/3/6 346/3/6
f 345/4/6 340/4/6 346/4/6
f 346/3/6 341/3/6 347/3/6
f 348/3/6 349/3/6 352/3/6
f 349/4/6 350/4/6 353/4/6
f 352/3/6 349/3/6 353/3/6
f 350/3/6 351/3/6 354/3/6
f 353/4/6 350/4/6 354/4/6
f 354/3/6 351/3/6 355/3/6
